<?xml version="1.0" encoding="utf-8"?>
<!-- Generator: Adobe Illustrator 27.5.0, SVG Export Plug-In . SVG Version: 6.00 Build 0)  -->
<svg version="1.1" xmlns="http://www.w3.org/2000/svg" xmlns:xlink="http://www.w3.org/1999/xlink" x="0px" y="0px"
	 viewBox="0 0 1200 1000" style="enable-background:new 0 0 1200 1000;" xml:space="preserve">
<g id="background">
	<rect x="0" style="fill:#FFFFFF;" width="1200" height="1000"/>
</g>
<g id="shadow">
	<path style="opacity:0.13;" d="M512.867,810.911c4.085-2.633,5.233-5.94,1.658-10.09c-2.874-3.337-11.053-1.816-14.801-2.082
		c-17.541-1.244-35.094-2.313-52.681-2.664c-35.371-0.706-70.789,0.97-105.935,5.021c-5.217,0.601-43.035,2.477-36.673,15.052
		c3.234,6.393,18.228,2.783,23.784,2.886c12.143,0.225,24.286,0.451,36.43,0.676c24.288,0.451,48.576,0.902,72.868,1.353
		C442.918,821.165,497.82,820.612,512.867,810.911z"/>
	<path style="opacity:0.13;" d="M899.46,829.083c4.187-2.699,5.364-6.089,1.699-10.344c-2.947-3.421-11.331-1.862-15.173-2.134
		c-17.982-1.275-35.977-2.371-54.005-2.731c-36.261-0.723-72.569,0.995-108.599,5.148c-5.348,0.616-44.117,2.539-37.595,15.43
		c3.316,6.554,18.687,2.853,24.381,2.959c12.449,0.231,24.897,0.462,37.346,0.693c24.899,0.462,49.798,0.924,74.7,1.387
		C827.751,839.594,884.033,839.027,899.46,829.083z"/>
</g>
<g id="object">
	<g>
		<path style="fill:#F2E7D6;" d="M435.571,358.907c-0.935,0.037-1.889,0.182-2.712,0.627c-1.65,0.892-2.471,2.808-2.833,4.648
			c-1.475,7.489,2.653,14.845,6.855,21.217c11.095,16.828,24.743,33.217,43.504,40.586c2.971,1.167,6.209,2.101,9.326,1.41
			c3.117-0.69,5.962-3.509,5.65-6.686c-0.194-1.973-1.496-3.636-2.745-5.175c-2.676-3.297-5.351-6.593-8.027-9.89
			c-10.028-12.356-20.067-24.724-30.953-36.331C448.723,364.078,442.744,358.623,435.571,358.907z"/>
		<g>
			<g>
				<g>
					<path style="fill:#868663;" d="M345.686,787.305c-5.536,0.486-11.221-0.947-15.865-3.998
						c8.018-18.101,16.036-36.201,24.055-54.302c2.536-5.724,5.084-11.483,6.601-17.557c1.866-7.467,2.13-15.227,2.385-22.92
						c0.99-29.828,1.979-59.657,2.969-89.486c0.083-2.501,0.185-5.083,1.256-7.345c3.078-6.497,11.932-7.094,19.113-6.752
						c1.574,0.075,3.291,0.207,4.444,1.282c1.318,1.228,1.439,3.239,1.472,5.04c0.426,23.534,4.46,2.258,4.886,25.792
						c0.15,8.275-3.316,61.442-5.006,69.544c-2.987,14.32-7.458,29.262-15.177,41.688
						C364.932,747.426,357.431,764.709,345.686,787.305z"/>
					<path style="fill:#868663;" d="M409.095,604.035c9.932-1.25,19.864-2.501,29.796-3.751c0.494-1.349-1.975,0.017-1.813,1.444
						c5.114,45.02,5.561,90.569,1.331,135.68c-1.823,19.441-4.514,38.98-2.664,58.418c-4.087,0.398-8.174,0.796-12.261,1.194
						c-7.413-60.644-14.826-121.288-22.239-181.932c-0.375-3.067-0.599-6.606,1.58-8.797
						C404.422,604.685,406.847,604.318,409.095,604.035z"/>
					<path style="fill:#826F5F;" d="M433.883,805.294c1.84,1.257-0.358,2.617-1.456,2.833c-1.999,0.393-4.106,0.488-6.127,0.208
						c-0.536-0.074-1.084-0.18-1.538-0.474c-0.357-0.231-0.633-0.565-0.903-0.893c-0.747-0.907-2.441-2.291-2.797-3.394
						c-0.293-0.909,0.176-1.868,0.528-2.76c0.748-1.893,2.149-3.901,1.857-6.035c4.424,0.048,8.471-1.878,12.215-1.057
						c0.456,1.495,1.721,2.628,1.308,3.874c0.272-0.823,11.105,0.79,12.382,0.911c2.055,0.195,4.115,0.329,6.18,0.307
						c1.608-0.017,4.589-1.055,5.644,0.447c0.375,0.533,0.544,1.182,0.656,1.824c0.085,0.489,0.14,0.995,0.026,1.477
						c-0.196,0.832-0.877,1.484-1.646,1.857C451.844,808.474,442.689,804.293,433.883,805.294z"/>
					<path style="fill:#826F5F;" d="M336.775,796.374c1.268,2.044-1.495,2.427-2.674,2.161c-2.145-0.484-4.266-1.311-6.138-2.469
						c-0.497-0.307-0.992-0.651-1.311-1.14c-0.251-0.384-0.378-0.834-0.502-1.276c-0.341-1.221-1.41-3.327-1.28-4.571
						c0.108-1.026,0.989-1.768,1.726-2.494c1.564-1.542,4.298-4.346,4.942-6.579c4.346,1.978,10.869,4.155,14.206,6.599
						c-1.556,1.386-1.609,2.468-2.561,3.518c0.628-0.693,10.617,5.627,11.825,6.305c1.944,1.09,3.918,2.12,5.966,3.001
						c1.595,0.685,4.991,0.962,5.376,2.905c0.137,0.69,0.021,1.405-0.149,2.087c-0.129,0.519-0.296,1.043-0.619,1.47
						c-0.557,0.736-1.513,1.082-2.436,1.114C353.117,807.354,345.905,799.23,336.775,796.374z"/>
				</g>
				<path style="fill:#EFBF6A;" d="M411.543,327.832c-1.951-2.244-3.797-4.571-6.581-6.378c-10.529-6.833-17.669-2.769-24.524,6.606
					c-9.884,13.518-15.214,29.581-20.34,45.146c-3.801,11.539-7.604,23.088-10.658,34.827
					c-19.565,75.204-7.639,154.175-10.886,231.593c21.745,2.929,43.489,5.858,65.234,8.788c12.662,1.706,26.681,3.454,39.376,2.452
					c3.391-0.268,33.039-8.12,30.165-13.872c-5.946-11.901-8.611-25.019-10.826-38.03c-9.337-54.858-11.633-110.801-6.819-166.187
					c1.509-17.36,3.707-34.91,0.831-52.113c-1.888-11.293-6.224-22.614-13.695-31.669c-7.984-9.677-17.378-10.06-26.874-16.93
					C414.218,330.815,412.857,329.343,411.543,327.832z"/>
				<g>
					<path style="fill:#F2E7D6;" d="M406.984,277.17c1.241-3.466,2.709-6.865,4.631-10.006c6.7-10.951,24.754-24.287,37.46-14.637
						c2.954,2.244,5.066,5.399,7.008,8.56c1.994,3.245,3.879,6.578,5.239,10.136c2.568,6.719,3.354,14.551,1.665,21.589
						c-1.572,6.546-5.561,12.721-9.276,18.243c-4.925,7.322-11.123,14.656-19.699,16.738c-11.413,2.77-23.462-5.395-28.019-16.22
						C401.435,300.75,403.026,288.227,406.984,277.17z"/>
					<path style="fill:#534741;" d="M446.318,265.233c-4.298,2.426-7.202,6.661-10.699,10.142
						c-3.497,3.482-8.402,6.408-13.161,5.104c1.668-2.585-1.217-6.257-4.293-6.165c-3.075,0.091-5.547,2.703-6.768,5.526
						c-1.203,2.78-1.491,6.157,0.088,8.742c1.579,2.585,5.39,3.828,7.817,2.014c2.234,11.668-4.646,23.133-5.226,34.999
						c-0.835,17.089,11.171,31.806,22.481,44.645c-0.599,2.908-4.109,4.435-7.028,3.896c-2.92-0.539-5.323-2.548-7.517-4.549
						c-14.267-13.012-26.096-29.12-31.977-47.512c-5.881-18.392-5.41-39.176,3.418-56.349c5.394-10.494,14.036-19.591,24.963-24.045
						c10.927-4.454,24.178-3.762,33.774,3.105c4.236,3.032,7.891,8.551,5.552,13.206
						C455.675,262.103,450.325,262.971,446.318,265.233z"/>
					<path style="fill:#534741;" d="M454.145,261.973c5.333,7.799,6.541,15.539,6.08,25.211c-0.158,3.325-3.25,27.005-7.757,27.058
						c6.673-0.078,11.436-6.556,13.767-12.81c4.626-12.408,6.421-38.082-5.726-47.051c-2.453-1.811-5.855-3.03-8.5-1.514
						c-1.249,2.851,0.085,6.176,1.872,8.725C453.97,261.719,454.058,261.846,454.145,261.973z"/>
				</g>
				<path style="fill:#F2E7D6;" d="M479.82,409.039c17.913,0.025,37.202,13.666,52.345,20.663c0.53,0.245,1.143,0.45,1.781,0.65
					c4.06,0.804,8.768,0.953,11.81,0.483c0.883-0.136,1.777-0.313,2.663-0.195c0.885,0.118,1.783,0.596,2.131,1.419
					c0.348,0.823-0.092,1.964-0.971,2.124c1.999,0.51,4.053,1.045,5.717,2.265c1.664,1.22,2.867,3.303,2.437,5.321
					c-0.579,2.717-3.686,4.073-6.45,4.351c-6.197,0.624-14.517-1.59-20.195-4.938c-3.411-0.474-6.964-1.555-9.141-2.107
					c-9.857-2.499-19.714-4.998-29.571-7.497c-6.053-1.535-19.555-4.393-23.847-9.43c-5.673-6.656-1.011-11.69,6.585-12.783
					C476.67,409.14,478.24,409.036,479.82,409.039z"/>
				<path style="opacity:0.12;fill:#FFFFFF;" d="M394.232,583.941c15.177-1.402,30.416,1.114,45.024-4.191
					c-3.311-2.161-4.435-13.307-5.02-17.896c-1.609-12.611,0.07-22.749-1.538-35.36c-13.916,1.852-31.263-0.444-45.206-1.946
					c0.216,19.007,1.504,37.996,3.85,56.78c0.089,0.716,0.2,1.481,0.61,1.996C392.517,584.035,393.43,584.015,394.232,583.941z"/>
				<path style="fill:#BDC5C6;" d="M427.081,536.037c-0.478-0.271-0.803-0.467-1.36-0.371c-3.378,0.582-6.515,1.569-9.998,1.801
					c-7.788,0.518-15.529-2.151-21.909-6.461c-0.822-0.555-1.538,0.742-0.765,1.31c5.02,3.687,10.314,5.925,16.456,7.004
					c2.71,0.476,5.461,0.458,8.196,0.326c1.369-0.066,2.885-0.36,4.231-0.587l1.932-0.442c0.913,0.052,1.467-0.07,1.73-0.333
					c0.43,0.319,1.089,0.241,1.46-0.12c0.09-0.088,0.179-0.175,0.269-0.263C427.865,537.37,427.742,536.412,427.081,536.037z"/>
				<path style="fill:#9FA9AA;" d="M438.666,483.022c-29.137,8.23-59.45,8.288-88.762,0.866c-0.846-0.214-1.199,1.067-0.359,1.304
					c29.345,8.287,60.327,7.957,89.65-0.253C440.427,484.594,439.902,482.673,438.666,483.022z"/>
				<path style="fill:#9FA9AA;" d="M353.337,494.617c-1.988-0.68-4.032-1.4-6.092-1.821c-0.698-0.143-1.24,0.894-0.513,1.217
					c1.98,0.882,4.109,1.513,6.183,2.135C353.905,496.446,354.298,494.945,353.337,494.617z"/>
				<path style="fill:#9FA9AA;" d="M371.483,495.042c-2.611-0.244-5.229-0.413-7.846-0.571c-0.887-0.054-0.844,1.252,0,1.353
					c2.612,0.311,5.226,0.612,7.846,0.838C372.526,496.751,372.512,495.138,371.483,495.042z"/>
				<path style="fill:#9FA9AA;" d="M392.909,496.843c-1.894-0.005-3.792-0.016-5.684,0.056c-0.885,0.034-0.885,1.339,0,1.373
					c1.893,0.073,3.791,0.061,5.684,0.056C393.867,498.326,393.867,496.845,392.909,496.843z"/>
				<path style="fill:#9FA9AA;" d="M413.459,496.843c-1.895,0.007-3.789,0.014-5.684,0.02c-0.932,0.003-0.932,1.441,0,1.445
					c1.895,0.007,3.789,0.014,5.684,0.021C414.417,498.332,414.417,496.839,413.459,496.843z"/>
				<path style="fill:#9FA9AA;" d="M435.564,493.004c-2.769,0.395-5.514,1.001-8.261,1.527c-0.951,0.182-0.534,1.577,0.395,1.433
					c2.769-0.431,5.565-0.786,8.31-1.349C437.083,494.395,436.6,492.857,435.564,493.004z"/>
			</g>
			<g>
				<path style="fill:#F2E7D6;" d="M508.864,467.114c-0.47,1.232-1.946,2.636-1.201,4.002c0.461,0.845,1.243,1.46,2.003,2.051
					c1.182,0.917,2.363,1.834,3.545,2.751c2.178,1.691,4.561,3.772,4.582,6.529c0.084,10.943-25.288-1.32-29.362-2.987
					c-21.089-8.63-47.155-3.798-65.508-17.304c-5.571-4.1-9.938-9.605-13.969-15.226c-18.663-26.026-31.597-56.138-37.623-87.592
					c3.859-4.139,10.269-5.672,15.583-3.728c5.314,1.944,9.222,7.251,9.5,12.903c12.294,25.066,25.254,49.805,38.863,74.182
					c1.329,2.381,2.726,4.83,4.907,6.468c1.971,1.48,4.41,2.165,6.786,2.82c16.19,4.464,34.462,6.594,48.93,15.019
					c0.655,0.382,1.324,0.777,2.07,0.91c1.132,0.203,2.272-0.22,3.343-0.636c1.519-0.589,3.038-1.177,4.557-1.766
					c0.826-0.32,1.826-0.62,2.537-0.091C509.083,465.922,509.1,466.496,508.864,467.114z"/>
				<path style="fill:#EFC786;" d="M370.759,360.08c1.859-2.165,4.591-3.36,7.288-4.292c2.952-1.02,6.047-1.818,9.165-1.636
					c6.04,0.354,11.375,4.402,14.793,9.394s5.234,10.879,7.003,16.665c1.908,6.243,3.816,12.486,5.723,18.729
					c-9.586,5.38-19.744,9.74-30.248,12.981c-3.448-6.963-6.896-13.925-10.344-20.888c-4.012-8.101-8.132-17.1-5.875-25.853
					C368.742,363.332,369.516,361.529,370.759,360.08z"/>
			</g>
		</g>
	</g>
	<g>
		<path style="fill:#C69263;" d="M501.444,377.978c-0.995,8.37,0.438,18.958,0.358,23.523c-0.234,13.249-0.228,26.503,0.044,39.752
			c0.15,7.324,0.063,8.271,8.248,8.439c7.63,0.157,15.267,0.165,22.899,0.166c7.601,0.001,85.654,0.917,86.162-2.299
			c2.446-15.479,2.787-31.165,2.31-46.781c-0.239-7.828-0.619-15.667-1.198-23.48c-0.659-8.901-3.02-8.845-12.3-8.971
			c-19.024-0.258-38.047-0.522-57.07-0.789c-9.512-0.133-19.023-0.267-28.535-0.4c-4.487-0.063-9.243-1.432-13.715-0.688
			C504.081,367.211,502.15,372.036,501.444,377.978z"/>
		<path style="fill:#D8C5AF;" d="M550.268,369.114c-0.358,13.349-0.586,26.702-0.682,40.055c5.88-0.002,11.76-0.004,17.64-0.007
			c0.39-13.203,0.779-26.407,1.169-39.61C562.352,369.407,556.31,369.26,550.268,369.114z"/>
	</g>
	<path style="fill:#1A1A1A;" d="M752.743,817.944c-2.052,1.722,0.738,3.087,2.077,3.216c2.437,0.233,4.969,0.096,7.352-0.478
		c0.632-0.152,1.275-0.344,1.783-0.75c0.399-0.319,0.69-0.75,0.974-1.175c0.786-1.173,2.648-3.029,2.943-4.39
		c0.243-1.122-0.432-2.214-0.958-3.238c-1.118-2.175-3.033-4.411-2.937-6.997c-5.285,0.582-10.354-1.242-14.733,0.184
		c-0.368,1.842-1.746,3.347-1.105,4.788c-0.423-0.952-13.187,2.261-14.7,2.557c-2.435,0.477-4.882,0.881-7.355,1.1
		c-1.925,0.171-5.613-0.717-6.697,1.203c-0.385,0.682-0.511,1.479-0.568,2.26c-0.044,0.594-0.05,1.206,0.143,1.77
		c0.333,0.972,1.224,1.671,2.189,2.025C731.64,823.876,742.092,817.791,752.743,817.944z"/>
	<path style="fill:#1A1A1A;" d="M871.995,805.911c-1.274,2.595,2.076,2.726,3.454,2.268c2.508-0.833,4.947-2.074,7.049-3.68
		c0.557-0.426,1.109-0.896,1.433-1.518c0.255-0.489,0.354-1.042,0.449-1.585c0.264-1.501,1.292-4.146,0.988-5.618
		c-0.25-1.214-1.392-1.997-2.36-2.778c-2.053-1.659-5.656-4.688-6.69-7.283c-4.963,2.881-12.506,6.257-16.206,9.577
		c2.026,1.473,2.217,2.76,3.479,3.903c-0.833-0.755-12.031,7.989-13.395,8.942c-2.195,1.533-4.435,3-6.78,4.296
		c-1.826,1.009-5.854,1.742-6.085,4.111c-0.082,0.841,0.141,1.682,0.425,2.479c0.216,0.606,0.477,1.212,0.914,1.685
		c0.753,0.814,1.938,1.115,3.045,1.044C853.752,820.979,861.414,810.409,871.995,805.911z"/>
	<g>
		<path style="fill:#4D4D4D;" d="M822.701,360.315c-2.923-2.763-6.854,1.343-4.345,4.345c12.742,15.249,20.165,32.552,21.65,52.431
			c0.435,5.821,9.547,5.863,9.109,0C847.55,396.12,838.061,374.836,822.701,360.315z"/>
		<path style="fill:#454549;" d="M860.262,796.122c6.678-0.075,13.308-2.463,18.5-6.663c-11.735-20.697-23.47-41.393-35.205-62.09
			c-3.711-6.545-7.441-13.131-9.976-20.215c-3.116-8.709-4.352-17.958-5.569-27.128c-4.72-35.556-9.439-71.111-14.159-106.667
			c-0.396-2.981-0.824-6.057-2.373-8.635c-4.452-7.405-15.111-7.07-23.658-5.809c-1.874,0.276-3.911,0.638-5.163,2.06
			c-1.43,1.625-1.337,4.044-1.163,6.202c2.281,28.196-5.066,3.23-2.785,31.425c0.802,9.914,11.25,73.088,14.232,82.577
			c5.27,16.772,12.388,34.111,23.093,48.057C832.517,750.711,843.537,770.491,860.262,796.122z"/>
		<path style="fill:#454549;" d="M758.529,574.312c-12.026-0.318-24.053-0.636-36.079-0.954c-0.751-1.555,2.364-0.214,2.339,1.512
			c-0.779,54.447,4.086,108.973,14.493,162.422c4.485,23.034,10.02,46.082,10.111,69.548c4.935-0.009,9.87-0.017,14.805-0.026
			c1.676-73.405,3.353-146.81,5.029-220.215c0.085-3.713-0.066-7.971-2.932-10.333C764.195,574.536,761.25,574.384,758.529,574.312z
			"/>
		<path style="fill:#EDD5BE;" d="M794.199,295.337c-0.025-0.932-0.353-1.826-0.677-2.7c-3.572-9.637-7.145-19.274-10.717-28.91
			c-2.558-6.901-5.664-14.431-12.267-17.681c-8.85-4.356-19.073,0.986-28.441,4.076c0.273,12.225-0.29,24.469-1.684,36.618
			c-0.786,6.854-1.838,13.773-0.98,20.619c0.858,6.846,3.939,13.771,9.727,17.526c9.812,6.364,23.34,1.315,31.729-6.834
			c5.704-5.54,10.098-12.419,12.727-19.923C793.93,297.225,794.225,296.292,794.199,295.337z"/>
		<path style="fill:#736357;" d="M780.119,289.912c0.522-2.606,2.583-4.938,5.196-5.421c2.613-0.482,5.552,1.195,6.148,3.785
			c0.722,3.135-1.767,5.969-3.356,8.767c-5.156,9.075-1.123,20.403,2.97,30.004c3.753-6.667,8.833-12.582,14.855-17.299
			c4.719-3.696,10.441-7.29,11.611-13.168c0.634-3.188-0.244-6.531,0.383-9.721c0.869-4.421,4.505-7.966,5.138-12.427
			c0.692-4.875-2.342-9.444-5.471-13.246c-7.283-8.851-15.918-16.588-25.512-22.861c-2.742-1.792-5.786-3.755-6.656-6.913
			c-0.441-1.602-0.263-3.376-1.014-4.859c-1.293-2.554-4.628-3.116-7.48-3.367c-8.809-0.777-17.887-1.527-26.327,1.113
			c-2.145,0.671-4.279,1.566-6.527,1.572c-4.384,0.012-8.186-3.324-12.56-3.609c-4.892-0.318-9.348,3.409-11.329,7.893
			c-1.982,4.484-1.979,9.572-1.692,14.466c2.996,1.308,5.992,2.616,8.988,3.924c-2.656,4.019-2.813,9.552-0.387,13.714
			c5.938,0.747,12.083-0.235,17.493-2.795c3.727-1.763,7.521-4.334,11.585-3.641c4.118,0.702,6.854,4.468,9.893,7.333
			c3.039,2.866,8.097,4.93,11.156,2.086C780.049,273.101,781.048,281.611,780.119,289.912z"/>
		<path style="fill:#3C698E;" d="M796.649,325.932c13.12,1.687,23.297,9.14,28.404,17.456c5.107,8.316,6.001,17.489,6.833,26.472
			c1.068,11.536,2.136,23.072,3.203,34.608c2.554,27.593,5.11,55.233,3.916,82.868c-0.544,12.595-1.866,25.168-3.188,37.737
			c-2.72,25.861-5.44,51.722-8.16,77.583c-35.917-2.358-71.833-4.717-107.75-7.075c-4.309-0.283-8.874-0.632-12.285-2.428
			c-6.202-3.265-5.83-9.551-4.84-14.812c12.37-65.752,22.262-131.547,28.158-197.886c0.813-9.152-1.586-36.942,4.058-43.818
			C741.596,328.598,784.341,324.35,796.649,325.932z"/>
		<path style="fill:#3C698E;" d="M733.791,247.31c12.206,14.737,29.181,19.932,45.498,22.791
			c14.073,2.466,28.276,3.602,42.469,3.395c4.043-17.086-3.962-36.086-15.418-45.42c-11.456-9.335-25.462-10.988-38.883-10.988
			c-7.307,0-14.988,0.563-21.206,5.687C739.806,228.085,735.898,237.599,733.791,247.31z"/>
		<path style="fill:#3C698E;" d="M755.31,248.281c-1.218-2.036-2.436-4.073-3.654-6.109c-1.775-2.968-3.644-6.036-6.526-7.946
			c-2.373-1.573-5.228-2.218-8.027-2.742c-11.859-2.216-24.797-2.591-35.268,3.4c-5.126,2.933-9.78,8.85-7.57,14.326
			c1.841,4.561,7.332,6.209,12.129,7.294c5.349,1.21,10.698,2.42,16.047,3.63c2.636,0.596,5.272,1.192,7.907,1.788
			c5.249,1.187,10.498,2.375,15.775,3.43c3.537,0.707,7.614,1.229,10.39-1.074c2.252-1.869,2.903-5.152,2.365-8.028
			C758.341,253.372,756.812,250.792,755.31,248.281z"/>
		<path style="fill:#4D4D4D;" d="M782.082,571.069c1.521,3.663,3.449,7.696,7.189,9.019c2.924,1.034,6.147,0.085,9.057-0.989
			c37.432-13.817,65.51-50.147,69.442-89.853c1.669-16.847-0.678-33.829-3.772-50.474c-1.583-8.518-3.437-17.191-7.938-24.594
			c-4.501-7.403-12.181-13.418-20.842-13.674c-1.059,19.807-10.081,38.52-22.146,54.263c-12.065,15.744-27.116,28.9-42.028,41.98
			c-3.82,3.351-7.82,6.984-9.196,11.876c-1.461,5.193,0.342,10.685,2.166,15.761C769.657,540.09,775.682,555.658,782.082,571.069z"
			/>
		<path style="fill:#595959;" d="M865.415,436.723c-1.706-9.175-3.702-18.516-8.55-26.49c-4.848-7.974-13.121-14.452-22.449-14.728
			c-1.141,21.334-10.858,41.489-23.854,58.447c-1.465,1.912-2.977,3.783-4.518,5.628c0.059,0.106,0.117,0.214,0.175,0.316
			c2.814,4.975,4.982,10.29,6.649,15.754c3.471,11.37,4.885,23.076,7.251,34.682c2.686,13.173,5.272,26.445,6.869,39.8
			c0.679,5.682,1.237,11.422,2.349,17.047c22.156-19.256,37.242-46.819,40.141-76.09
			C871.275,472.942,868.748,454.65,865.415,436.723z"/>
		<path style="fill:#4D4D4D;" d="M798.219,323.769c-8.051-6.8-18.415-0.191-24.715,5.945c-7.944,7.738-13.425,18.619-18.311,28.429
			c-10.392,20.868-16.68,43.598-19.237,66.721c-2.545,23.017-2.171,47.456,2.674,70.154c2.503,11.721,7.943,22.143,15.644,31.256
			c7.47,8.84,16.797,14.862,26.09,21.531c2.736,1.963,6.009-2.392,3.567-4.623c-14.109-12.89-28.097-28.927-33.292-47.662
			c-2.855-10.294-3.514-21.252-4.095-31.874c-0.553-10.119-0.434-20.268,0.223-30.378c1.264-19.447,4.796-39.229,11.471-57.573
			c3.477-9.555,7.974-18.689,13.246-27.376c2.567-4.23,5.341-8.276,8.747-11.877c2.494-2.636,11.304-9.154,15.907-9.395
			C801.064,326.789,802.224,327.152,798.219,323.769z"/>
		<g>
			<path style="fill:#EDD5BE;" d="M595.279,459.857c1.918,0.457,3.934,0.55,5.939,0.616c5.293,0.174,10.606,0.176,15.927,0.006
				c0.695-0.022,1.521-0.118,1.904-0.709c0.24-0.369,0.223-0.821,0.187-1.237c-0.223-2.596-0.834-5.131-1.809-7.502
				c-0.743-1.807-1.769-3.595-3.496-4.562c-2.002-1.121-4.552-0.944-6.926-1.091c-4.5-0.279-8.797-1.863-12.207-4.499
				c-1.106,0.288-1.619,1.692-1.291,2.706s1.218,1.712,2.068,2.357c-2.215,1.008-4.563-0.296-6.883-0.611
				c-1.988-0.27-4.057,0.209-6.067,0.685c-0.557,0.132-1.149,0.283-1.561,0.687c-1.064,1.045-0.133,2.658,0.81,3.656
				C585.658,454.361,589.729,458.532,595.279,459.857z"/>
			<path style="fill:#4B7B9B;" d="M791.297,406.358c4.588-4.454,9.126-9.226,11.53-15.151c2.405-5.925,2.248-13.298-1.961-18.112
				c-3.747-4.285-9.994-5.725-15.623-4.881c-5.629,0.844-10.762,3.656-15.544,6.743c-20.522,13.251-36.93,32.327-58.089,44.537
				c-31.066,17.928-68.555,19.13-103.952,24.93c-0.982,0.161-2.03,0.358-2.739,1.057c-0.802,0.79-0.96,2.008-1.072,3.128
				c-0.417,4.136-0.834,8.271-1.251,12.407c20.39,2.987,40.939,4.89,61.531,5.697c21.862,0.857,44.746,0.243,64.069-10.018
				c7.408-3.934,14.035-9.164,20.616-14.364C763.38,430.822,777.976,419.288,791.297,406.358z"/>
		</g>
		<path style="fill:#333333;" d="M806.451,518.445c0.753,2.372,1.507,4.744,2.26,7.116c0.795-0.177,1.531-0.552,2.256-0.923
			c4.965-2.543,9.93-5.086,14.896-7.629c0.647-3.847,0.176-7.876-1.34-11.471c-5.333,4.311-10.758,8.678-17.08,11.334
			c-0.479,0.201-1.037,0.486-1.09,1.004C806.333,518.068,806.392,518.26,806.451,518.445z"/>
	</g>
</g>
</svg>
