<svg width="162" height="48" viewBox="0 0 162 48" fill="none" xmlns="http://www.w3.org/2000/svg">
<g clip-path="url(#clip0_4217_33)">
<mask id="mask0_4217_33" style="mask-type:luminance" maskUnits="userSpaceOnUse" x="0" y="3" width="162" height="42">
<path d="M161.391 3.50024H0V44.4998H161.391V3.50024Z" fill="white"/>
</mask>
<g mask="url(#mask0_4217_33)">
<path d="M73.7039 25.2419C73.7409 25.2004 73.7748 25.1572 73.807 25.1125C73.8102 25.1077 73.8134 25.1013 73.8183 25.0965C73.8472 25.0535 73.8762 25.0104 73.9003 24.9673C73.9051 24.9577 73.91 24.9481 73.9164 24.9385C73.939 24.8987 73.9599 24.8572 73.9776 24.8172C73.9841 24.8029 73.9905 24.7869 73.997 24.7725C74.013 24.7359 74.0275 24.6992 74.0404 24.6608C74.0469 24.6417 74.0534 24.6225 74.0582 24.6017C74.0677 24.5683 74.0774 24.5331 74.0871 24.4996C74.0919 24.4772 74.0968 24.4549 74.1016 24.4309C74.1081 24.3991 74.1145 24.3671 74.1178 24.3336C74.121 24.3096 74.1225 24.2841 74.1257 24.2601C74.1289 24.2283 74.1322 24.1979 74.1322 24.166C74.1322 24.1405 74.1322 24.1149 74.1322 24.0893C74.1322 24.0591 74.1322 24.0288 74.1305 23.9968C74.1305 23.9713 74.1257 23.9441 74.1241 23.9185C74.121 23.8899 74.1178 23.8596 74.1129 23.8308C74.1081 23.8037 74.1032 23.7765 74.0984 23.7479C74.0936 23.7207 74.0871 23.6936 74.0807 23.6664C74.0726 23.6361 74.0646 23.6073 74.055 23.5787C74.0469 23.5547 74.0404 23.5307 74.0324 23.5068C74.0211 23.4732 74.0067 23.4413 73.9938 23.4095C73.9857 23.3903 73.9776 23.3711 73.9679 23.352C73.9503 23.3152 73.931 23.2801 73.9116 23.2435C73.9035 23.2291 73.8972 23.2163 73.8891 23.2019C73.8649 23.162 73.8392 23.1237 73.8118 23.0853C73.8053 23.0759 73.7989 23.0679 73.7924 23.0583C73.7619 23.0168 73.7296 22.9784 73.6959 22.9401C73.691 22.9353 73.6878 22.9305 73.6846 22.9257L73.6702 22.9099C73.6702 22.9099 73.6557 22.8939 73.6492 22.8859L61.2371 8.8969C60.5851 8.17065 59.4613 8.1068 58.7287 8.75325C57.9961 9.3997 57.9317 10.5138 58.5839 11.2401L61.5366 14.7006L69.9863 24.1069C69.9863 24.1069 69.9895 24.1149 69.9863 24.1181L58.5146 36.5396C57.8737 37.2707 57.8802 38.4008 58.6015 39.0552C59.3421 39.7272 60.4885 39.6585 61.1422 38.9116L73.6621 25.2945C73.6718 25.2833 73.6813 25.2721 73.691 25.2609L73.6991 25.2531C73.6991 25.2531 73.7039 25.2483 73.7056 25.2451L73.7039 25.2419Z" fill="#F18D13"/>
<path d="M86.3044 12.7213C85.5847 12.0605 84.4608 12.102 83.7942 12.8155L78.8691 18.0813L66.2993 4.09076C65.6473 3.36449 64.5234 3.30065 63.7909 3.9471C63.0583 4.59356 62.9938 5.70769 63.6459 6.43396L77.5183 21.8754C78.1703 22.6017 79.2941 22.6656 80.0267 22.0192C80.0798 21.9712 80.1297 21.9217 80.1749 21.869L86.401 15.2114C87.0675 14.4979 87.0257 13.3837 86.306 12.7229L86.3044 12.7213Z" fill="#023A90"/>
<path d="M79.08 11.2608C80.476 11.2608 81.6078 10.1388 81.6078 8.75479C81.6078 7.37075 80.476 6.24878 79.08 6.24878C77.684 6.24878 76.5522 7.37075 76.5522 8.75479C76.5522 10.1388 77.684 11.2608 79.08 11.2608Z" fill="#023A90"/>
<path d="M0.644043 31.079V16.675H4.54362V31.079H0.644043Z" fill="#023A90"/>
<path d="M8.16618 16.675H11.9015L12.011 20.7054L10.8292 20.8954C11.1593 20.1515 11.6536 19.4349 12.3121 18.7437C12.9706 18.0542 13.7773 17.4875 14.7288 17.0422C15.6804 16.5985 16.7704 16.375 17.9973 16.375C19.48 16.375 20.7246 16.6527 21.7325 17.205C22.7389 17.7589 23.5037 18.5074 24.0254 19.4509C24.5469 20.3942 24.8078 21.4381 24.8078 22.5825V31.0774H20.9082V23.3982C20.9082 22.6719 20.7246 22.0318 20.3592 21.4779C19.9921 20.9241 19.4978 20.4931 18.8763 20.185C18.2532 19.877 17.5481 19.7222 16.7607 19.7222C16.0282 19.7222 15.3728 19.845 14.7965 20.0893C14.22 20.3351 13.729 20.6575 13.3264 21.0566C12.9239 21.4557 12.6132 21.8834 12.3926 22.3367C12.172 22.7901 12.0625 23.2258 12.0625 23.6439V31.0774H8.16296V16.6734L8.16618 16.675Z" fill="#023A90"/>
<path d="M36.2941 31.3503C34.5906 31.3503 33.1173 31.0327 31.8727 30.3973C30.6267 29.7621 29.6655 28.8825 28.9892 27.7557C28.3114 26.6304 27.9733 25.3327 27.9733 23.8625C27.9733 22.3925 28.3338 21.122 29.0584 19.9967C29.7814 18.8713 30.7893 17.9871 32.0789 17.3421C33.3702 16.6989 34.8578 16.3749 36.5419 16.3749C37.5676 16.3749 38.5191 16.4883 39.3983 16.7149C40.2773 16.9416 41.0421 17.2416 41.691 17.6135C42.3398 17.9855 42.8582 18.3893 43.243 18.8251C43.628 19.2608 43.8372 19.6965 43.8742 20.1323L42.8857 20.3223V10.9287H46.8126V31.0789H43.1046L42.9404 27.2129L43.71 27.5131C43.673 27.9488 43.4541 28.3941 43.0515 28.8475C42.649 29.3008 42.1032 29.7189 41.4173 30.1005C40.7314 30.482 39.9521 30.7868 39.0826 31.0135C38.2133 31.2401 37.2842 31.3535 36.2941 31.3535V31.3503ZM37.4195 27.9744C38.5546 27.9744 39.5383 27.7972 40.3723 27.4428C41.2048 27.0885 41.8552 26.6032 42.3222 25.9855C42.789 25.3677 43.0225 24.6607 43.0225 23.8609C43.0225 23.0613 42.789 22.3861 42.3222 21.778C41.8552 21.1699 41.2048 20.6893 40.3723 20.3351C39.5383 19.9807 38.5546 19.8035 37.4195 19.8035C36.2844 19.8035 35.3554 19.9807 34.5213 20.3351C33.6873 20.6893 33.0385 21.1699 32.5716 21.778C32.1046 22.3861 31.8711 23.0804 31.8711 23.8609C31.8711 24.6415 32.1046 25.3677 32.5716 25.9855C33.0385 26.6032 33.6873 27.0885 34.5213 27.4428C35.3538 27.7972 36.3198 27.9744 37.4195 27.9744Z" fill="#023A90"/>
<path d="M52.5525 13.6997C51.8023 13.6997 51.2162 13.5145 50.7944 13.141C50.3725 12.7691 50.1633 12.2472 50.1633 11.5752C50.1633 10.959 50.379 10.4547 50.8088 10.0636C51.2388 9.67412 51.8201 9.47778 52.5525 9.47778C53.2851 9.47778 53.889 9.66454 54.3108 10.0365C54.731 10.4084 54.9419 10.9207 54.9419 11.5752C54.9419 12.1929 54.7262 12.7005 54.2964 13.0995C53.8664 13.4986 53.2836 13.6981 52.5525 13.6981V13.6997ZM50.6302 31.3168V16.9128H54.5297V31.3168H50.6302Z" fill="#023A90"/>
<path d="M90.8866 37.0138V16.5922H94.6493L94.7588 19.8595L94.0456 19.6154C94.192 19.0886 94.5994 18.581 95.2676 18.091C95.9357 17.601 96.7826 17.1891 97.8083 16.8523C98.8338 16.5171 99.9513 16.3479 101.159 16.3479C102.862 16.3479 104.35 16.6655 105.622 17.3008C106.894 17.9362 107.882 18.8124 108.588 19.9282C109.293 21.0439 109.645 22.3384 109.645 23.8084C109.645 25.2786 109.288 26.5491 108.575 27.6744C107.86 28.7998 106.866 29.6808 105.594 30.3162C104.321 30.9514 102.843 31.2691 101.159 31.2691C99.8772 31.2691 98.718 31.0919 97.6843 30.7391C96.6489 30.3848 95.8037 29.9411 95.1436 29.4047C94.4851 28.87 94.0729 28.348 93.907 27.8388L94.8135 27.4574V37.0154H90.8866V37.0138ZM100.28 27.9458C101.395 27.9458 102.371 27.7686 103.205 27.4143C104.038 27.0599 104.688 26.5699 105.155 25.9442C105.622 25.3184 105.855 24.605 105.855 23.8068C105.855 23.0088 105.617 22.2954 105.142 21.6696C104.666 21.0439 104.017 20.5571 103.192 20.2123C102.368 19.8675 101.397 19.6951 100.281 19.6951C99.1656 19.6951 98.2076 19.8723 97.3558 20.2267C96.5041 20.581 95.8456 21.0663 95.3787 21.684C94.9117 22.3016 94.6782 23.0088 94.6782 23.8084C94.6782 24.6082 94.9117 25.32 95.3787 25.9458C95.8456 26.5715 96.5041 27.0615 97.3558 27.4159C98.2076 27.7702 99.1816 27.9474 100.281 27.9474L100.28 27.9458Z" fill="#023A90"/>
<path d="M122.384 31.2961C120.388 31.2961 118.63 30.9785 117.111 30.3432C115.591 29.708 114.414 28.8316 113.582 27.7159C112.748 26.6001 112.333 25.3328 112.333 23.9169C112.333 22.7183 112.584 21.6536 113.088 20.7183C113.592 19.7829 114.292 18.9896 115.189 18.3352C116.086 17.6823 117.111 17.1779 118.266 16.8236C119.42 16.4692 120.637 16.292 121.919 16.292C123.201 16.292 124.363 16.4692 125.463 16.8236C126.561 17.1779 127.524 17.6727 128.346 18.308C129.171 18.9433 129.811 19.7015 130.269 20.5809C130.726 21.4621 130.937 22.4277 130.9 23.4812L130.872 24.8699H115.355L114.724 22.3096H127.661L127.221 22.7997V22.2011C127.147 21.6744 126.859 21.2115 126.356 20.8124C125.852 20.4133 125.216 20.0957 124.447 19.8595C123.677 19.6232 122.854 19.5052 121.975 19.5052C120.895 19.5052 119.902 19.6408 118.995 19.9137C118.089 20.1851 117.366 20.6209 116.825 21.2211C116.284 21.8196 116.015 22.6193 116.015 23.6169C116.015 24.4709 116.308 25.2243 116.894 25.8771C117.48 26.53 118.304 27.0487 119.365 27.4287C120.426 27.8101 121.663 28 123.073 28C124.484 28 125.637 27.8372 126.533 27.51C127.43 27.1828 128.118 26.8939 128.593 26.6385L130.269 29.1972C129.628 29.5963 128.886 29.9601 128.044 30.2857C127.202 30.6129 126.3 30.862 125.339 31.0344C124.378 31.2068 123.392 31.2929 122.386 31.2929L122.384 31.2961Z" fill="#023A90"/>
<path d="M134.286 31.0231V16.6191H138.049L138.186 21.9552L136.977 21.928C137.269 20.8938 137.764 19.9504 138.459 19.0964C139.154 18.244 139.969 17.5672 140.903 17.0676C141.837 16.568 142.808 16.3191 143.814 16.3191C144.492 16.3191 145.158 16.3766 145.806 16.5362C146.398 16.683 146.328 16.691 146.328 16.8634L146.34 21.221C145.956 20.9671 145.439 20.7628 144.788 20.608C144.137 20.4532 143.52 20.3766 142.935 20.3766C142.166 20.3766 141.488 20.4947 140.903 20.731C140.318 20.9671 139.823 21.28 139.421 21.6695C139.018 22.0606 138.714 22.4915 138.514 22.9624C138.312 23.4348 138.211 23.9058 138.211 24.3782V31.0215H134.284L134.286 31.0231Z" fill="#023A90"/>
<path d="M149.619 20.0765V16.6192H161.391V20.0765H149.619ZM152.863 31.0232V12.1531H156.762V31.0232H152.863Z" fill="#023A90"/>
<path d="M86.3044 35.277C85.5847 35.9378 84.4608 35.8963 83.7942 35.1828L78.8691 29.917L66.2993 43.9091C65.6473 44.6354 64.5234 44.6992 63.7909 44.0528C63.0583 43.4063 62.9938 42.2922 63.6459 41.5659L77.5183 26.1244C78.1703 25.3982 79.2941 25.3343 80.0267 25.9808C80.0798 26.0287 80.1297 26.0782 80.1749 26.1308L86.401 32.7884C87.0675 33.502 87.0257 34.6162 86.306 35.277H86.3044Z" fill="#023A90"/>
<path d="M86.3044 35.277C85.5847 35.9378 84.4608 35.8963 83.7942 35.1828L78.8691 29.917L66.2993 43.9091C65.6473 44.6354 64.5234 44.6992 63.7909 44.0528C63.0583 43.4063 62.9938 42.2922 63.6459 41.5659L77.5183 26.1244C78.1703 25.3982 79.2941 25.3343 80.0267 25.9808C80.0798 26.0287 80.1297 26.0782 80.1749 26.1308L86.401 32.7884C87.0675 33.502 87.0257 34.6162 86.306 35.277H86.3044Z" fill="#023A90"/>
<path d="M79.08 41.7513C80.476 41.7513 81.6078 40.6293 81.6078 39.2453C81.6078 37.8613 80.476 36.7393 79.08 36.7393C77.684 36.7393 76.5522 37.8613 76.5522 39.2453C76.5522 40.6293 77.684 41.7513 79.08 41.7513Z" fill="#023A90"/>
<path d="M2.5278 13.8003C3.92387 13.8003 5.05561 12.6784 5.05561 11.2943C5.05561 9.9103 3.92387 8.78833 2.5278 8.78833C1.13174 8.78833 0 9.9103 0 11.2943C0 12.6784 1.13174 13.8003 2.5278 13.8003Z" fill="#F18D13"/>
</g>
</g>
<defs>
<clipPath id="clip0_4217_33">
<rect width="161.391" height="48" fill="white"/>
</clipPath>
</defs>
</svg>
