<?xml version="1.0" encoding="utf-8"?>
<!-- Generator: Adobe Illustrator 27.5.0, SVG Export Plug-In . SVG Version: 6.00 Build 0)  -->
<svg version="1.1" xmlns="http://www.w3.org/2000/svg" xmlns:xlink="http://www.w3.org/1999/xlink" x="0px" y="0px"
	 viewBox="0 0 4975 4975" style="enable-background:new 0 0 4975 4975;" xml:space="preserve">
<g id="Layer_1">
	<radialGradient id="SVGID_1_" cx="2487.5" cy="2487.5" r="3776.8708" gradientUnits="userSpaceOnUse">
		<stop  offset="0" style="stop-color:#FFFFFF"/>
		<stop  offset="0.5657" style="stop-color:#FFFFFF"/>
		<stop  offset="0.6349" style="stop-color:#FAFAFA"/>
		<stop  offset="0.7142" style="stop-color:#ECEDED"/>
		<stop  offset="0.7984" style="stop-color:#D5D6D7"/>
		<stop  offset="0.8862" style="stop-color:#B5B6B8"/>
		<stop  offset="0.9759" style="stop-color:#8C8E91"/>
		<stop  offset="1" style="stop-color:#808285"/>
	</radialGradient>
	<rect style="fill:url(#SVGID_1_);" width="4975" height="4975"/>
</g>
<g id="Isolation_Mode">
	
		<radialGradient id="SVGID_00000101101998743596683360000016295397372469389999_" cx="2470.2759" cy="51619.75" r="1431.8352" gradientTransform="matrix(1 0 0 0.1803 0 -5684.2993)" gradientUnits="userSpaceOnUse">
		<stop  offset="0" style="stop-color:#808285"/>
		<stop  offset="0.1191" style="stop-color:#9D9FA2"/>
		<stop  offset="0.2679" style="stop-color:#BEC0C2"/>
		<stop  offset="0.4136" style="stop-color:#D9DADC"/>
		<stop  offset="0.5536" style="stop-color:#ECEDEE"/>
		<stop  offset="0.6852" style="stop-color:#F8F9F9"/>
		<stop  offset="0.8" style="stop-color:#FFFFFF"/>
	</radialGradient>
	
		<ellipse style="fill:url(#SVGID_00000101101998743596683360000016295397372469389999_);" cx="2470.277" cy="3622.741" rx="1533.71" ry="307.012"/>
	<g>
		<path style="fill:#006838;" d="M4127.468,2818.573c-3.512-0.382-8.72-0.98-15.497-1.85c-13.555-1.724-33.395-4.521-58.496-8.765
			c-25.104-4.199-55.459-9.964-90.023-17.393c-17.271-3.809-35.613-7.896-54.844-12.635c-9.629-2.279-19.459-4.854-29.527-7.37
			c-5.021-1.319-10.102-2.653-15.237-4.003c-5.134-1.348-10.321-2.709-15.545-4.168c-5.225-1.437-10.503-2.887-15.835-4.354
			c-5.316-1.516-10.685-3.047-16.104-4.593c-10.841-3.047-21.819-6.41-32.992-9.729c-22.304-6.837-45.272-14.065-68.684-22.04
			c-23.445-7.836-47.317-16.451-71.582-25.451c-6.045-2.305-12.123-4.621-18.232-6.95c-3.051-1.169-6.107-2.341-9.173-3.515
			c-3.052-1.211-6.11-2.425-9.177-3.641c-6.126-2.432-12.281-4.873-18.464-7.326c-6.146-2.538-12.317-5.088-18.517-7.646
			c-49.55-20.468-99.751-43.584-149.572-68.848c-3.115-1.572-6.234-3.146-9.355-4.721c-3.098-1.621-6.199-3.244-9.302-4.868
			c-6.194-3.255-12.399-6.515-18.613-9.78c-3.116-1.607-6.187-3.314-9.269-4.998c-3.079-1.686-6.161-3.373-9.245-5.061
			c-3.081-1.686-6.164-3.373-9.249-5.061c-3.082-1.689-6.178-3.354-9.223-5.12c-6.108-3.482-12.224-6.968-18.343-10.456
			l-9.167-5.232l-9.081-5.395c-6.048-3.592-12.1-7.185-18.152-10.778c-6.042-3.6-11.982-7.38-17.972-11.055l-8.962-5.546
			c-2.979-1.856-5.987-3.662-8.921-5.593c-5.895-3.804-11.787-7.605-17.677-11.405l-8.821-5.689
			c-2.927-1.915-5.812-3.896-8.715-5.839c-5.793-3.897-11.582-7.792-17.364-11.683c-5.813-3.828-11.444-7.929-17.143-11.889
			c-5.677-3.984-11.347-7.962-17.009-11.936c-5.576-4.08-11.146-8.153-16.705-12.219c-2.774-2.032-5.547-4.063-8.316-6.091
			c-2.765-2.033-5.55-4.026-8.251-6.135c-43.765-32.949-85.062-67.215-123.235-101.935c-38.188-34.71-73.246-69.873-104.896-104.371
			c-3.919-4.344-7.811-8.659-11.674-12.943c-1.931-2.138-3.854-4.268-5.77-6.391c-1.908-2.127-3.848-4.208-5.671-6.388
			c-7.38-8.603-14.646-17.075-21.792-25.407c-1.807-2.057-3.52-4.186-5.233-6.296c-1.715-2.107-3.423-4.206-5.122-6.294
			c-3.397-4.17-6.765-8.303-10.101-12.398c-6.761-8.095-12.978-16.396-19.19-24.393c-12.567-15.869-23.763-31.735-34.68-46.514
			c-1.381-1.834-2.646-3.745-3.945-5.607c-1.291-1.868-2.573-3.724-3.847-5.567c-2.546-3.681-5.057-7.312-7.532-10.891
			c-2.475-3.573-4.913-7.094-7.315-10.563c-0.601-0.866-1.198-1.729-1.794-2.589c-0.573-0.878-1.144-1.752-1.712-2.624
			c-1.136-1.741-2.263-3.47-3.38-5.184c-8.893-13.746-17.461-26.362-24.701-38.518c-3.697-6.008-7.244-11.772-10.633-17.279
			c-0.848-1.375-1.685-2.733-2.512-4.075c-0.413-0.671-0.824-1.338-1.232-2c-0.396-0.658-0.743-1.293-1.114-1.934
			c-1.458-2.552-2.88-5.04-4.264-7.463c-5.547-9.655-10.499-18.276-14.808-25.776c-4.797-8.686-8.877-16.074-12.186-22.065
			c-6.615-11.981-10.145-18.371-10.145-18.371l-104.963-189.651l-104.963,189.651c0,0-3.529,6.39-10.145,18.371
			c-3.309,5.991-7.389,13.379-12.186,22.065c-4.309,7.5-9.261,16.121-14.808,25.776c-1.384,2.423-2.806,4.911-4.264,7.463
			c-0.371,0.641-0.718,1.276-1.114,1.934c-0.408,0.663-0.819,1.33-1.232,2c-0.827,1.342-1.665,2.7-2.511,4.075
			c-3.389,5.507-6.936,11.271-10.633,17.279c-7.241,12.156-15.809,24.772-24.702,38.518c-1.117,1.714-2.244,3.442-3.38,5.184
			c-0.568,0.871-1.139,1.746-1.712,2.624c-0.596,0.859-1.193,1.723-1.794,2.589c-2.402,3.469-4.841,6.99-7.315,10.563
			c-2.476,3.58-4.987,7.21-7.532,10.891c-1.273,1.843-2.556,3.699-3.847,5.567c-1.299,1.862-2.565,3.773-3.945,5.607
			c-10.917,14.779-22.112,30.646-34.68,46.514c-6.212,7.997-12.43,16.298-19.19,24.393c-3.336,4.095-6.703,8.228-10.1,12.398
			c-1.7,2.089-3.408,4.187-5.123,6.294c-1.713,2.111-3.427,4.239-5.233,6.296c-7.146,8.332-14.413,16.804-21.792,25.407
			c-1.823,2.18-3.762,4.261-5.671,6.388c-1.916,2.123-3.839,4.253-5.77,6.391c-3.863,4.284-7.755,8.599-11.674,12.943
			c-31.65,34.498-66.708,69.66-104.896,104.371c-38.174,34.72-79.471,68.986-123.236,101.935c-2.701,2.109-5.486,4.102-8.251,6.135
			c-2.769,2.029-5.542,4.059-8.316,6.091c-5.56,4.066-11.128,8.14-16.706,12.219c-5.662,3.973-11.331,7.952-17.008,11.936
			c-5.699,3.96-11.33,8.061-17.143,11.889c-5.783,3.891-11.571,7.785-17.364,11.683c-2.904,1.942-5.789,3.924-8.715,5.839
			l-8.821,5.689c-5.89,3.8-11.783,7.602-17.677,11.405c-2.934,1.931-5.942,3.736-8.921,5.593l-8.961,5.546
			c-5.99,3.675-11.93,7.455-17.972,11.055c-6.053,3.594-12.104,7.187-18.152,10.778l-9.081,5.395l-9.167,5.232
			c-6.12,3.488-12.234,6.974-18.343,10.456c-3.045,1.767-6.141,3.431-9.223,5.12c-3.085,1.688-6.168,3.375-9.25,5.061
			c-3.083,1.688-6.166,3.375-9.245,5.061c-3.082,1.684-6.152,3.391-9.268,4.998c-6.214,3.266-12.419,6.525-18.614,9.78
			c-3.103,1.624-6.204,3.247-9.301,4.868c-3.122,1.575-6.24,3.148-9.356,4.721c-49.821,25.264-100.022,48.38-149.573,68.848
			c-6.198,2.559-12.371,5.108-18.516,7.646c-6.183,2.453-12.338,4.895-18.464,7.326c-3.066,1.216-6.125,2.43-9.177,3.641
			c-3.065,1.174-6.123,2.346-9.172,3.515c-6.109,2.329-12.188,4.646-18.233,6.95c-24.264,9-48.137,17.615-71.582,25.451
			c-23.411,7.975-46.379,15.203-68.683,22.04c-11.173,3.318-22.152,6.682-32.993,9.729c-5.419,1.546-10.788,3.077-16.104,4.593
			c-5.332,1.467-10.61,2.917-15.835,4.354c-5.224,1.459-10.411,2.82-15.544,4.168c-5.136,1.35-10.216,2.684-15.238,4.003
			c-10.069,2.517-19.898,5.091-29.527,7.37c-19.23,4.738-37.572,8.826-54.843,12.635c-34.565,7.429-64.921,13.193-90.024,17.393
			c-25.102,4.244-44.941,7.041-58.496,8.765c-6.778,0.869-11.985,1.468-15.498,1.85c-3.515,0.364-5.33,0.552-5.33,0.552
			s1.823,0.105,5.354,0.309c3.534,0.186,8.78,0.428,15.629,0.655c13.7,0.47,33.815,0.886,59.454,0.712
			c25.643-0.129,56.795-0.966,92.563-2.79c17.869-1.008,36.915-2.125,56.962-3.749c10.04-0.723,20.306-1.703,30.847-2.594
			c5.262-0.508,10.585-1.021,15.967-1.54c5.385-0.519,10.833-1.044,16.324-1.659c5.499-0.593,11.055-1.192,16.667-1.799
			c5.607-0.659,11.27-1.325,16.986-1.998c11.448-1.303,23.069-2.896,34.924-4.424c23.666-3.254,48.151-6.811,73.249-11.053
			c25.131-4.105,50.862-8.932,77.168-14.113c6.565-1.354,13.166-2.715,19.8-4.084c3.319-0.69,6.646-1.383,9.981-2.078
			c3.327-0.732,6.662-1.467,10.005-2.203c6.692-1.477,13.417-2.959,20.172-4.448c6.737-1.583,13.504-3.173,20.3-4.77
			c54.396-12.795,110.249-28.271,166.562-46.215c3.523-1.116,7.05-2.233,10.58-3.351c3.514-1.169,7.03-2.339,10.55-3.51
			c7.043-2.357,14.098-4.719,21.163-7.084c3.545-1.16,7.053-2.424,10.574-3.665c3.521-1.244,7.045-2.489,10.571-3.735
			c3.528-1.248,7.059-2.497,10.591-3.746c3.533-1.254,7.08-2.481,10.585-3.816c7.037-2.626,14.08-5.254,21.129-7.883l10.585-3.963
			l10.524-4.139c7.025-2.766,14.055-5.533,21.085-8.301c7.031-2.782,13.982-5.758,20.985-8.635l10.492-4.354
			c3.494-1.463,7.013-2.875,10.471-4.418c6.947-3.035,13.892-6.068,20.833-9.102l10.421-4.559c3.463-1.541,6.891-3.152,10.338-4.727
			c6.89-3.172,13.775-6.34,20.654-9.506c6.915-3.11,13.674-6.514,20.501-9.782c6.817-3.304,13.625-6.603,20.423-9.896
			c6.74-3.426,13.471-6.846,20.19-10.26c3.361-1.713,6.72-3.426,10.075-5.136c3.353-1.718,6.726-3.397,10.025-5.2
			c53.27-28.016,104.661-58.192,153.182-89.76c48.533-31.551,94.182-64.492,136.248-97.62c5.227-4.185,10.418-8.342,15.571-12.469
			c2.579-2.067,5.148-4.127,7.708-6.18c2.554-2.061,5.136-4.075,7.604-6.197c9.975-8.407,19.798-16.686,29.458-24.827
			c2.438-2.019,4.784-4.115,7.128-6.195c2.347-2.08,4.683-4.15,7.009-6.211c4.654-4.13,9.268-8.223,13.838-12.278
			c9.234-8.032,17.901-16.32,26.521-24.336c17.382-15.905,33.247-31.964,48.632-47.04c1.939-1.871,3.761-3.821,5.612-5.724
			c1.844-1.91,3.675-3.808,5.495-5.693c1.632-1.693,3.251-3.373,4.863-5.045c1.612,1.672,3.231,3.352,4.863,5.045
			c1.82,1.885,3.651,3.783,5.495,5.693c1.852,1.903,3.673,3.853,5.612,5.724c15.385,15.076,31.25,31.134,48.632,47.04
			c8.62,8.016,17.287,16.304,26.521,24.336c4.57,4.055,9.184,8.148,13.838,12.278c2.326,2.061,4.662,4.131,7.009,6.211
			c2.344,2.081,4.689,4.176,7.128,6.195c9.659,8.141,19.482,16.42,29.458,24.827c2.468,2.122,5.05,4.136,7.604,6.197
			c2.561,2.053,5.13,4.113,7.709,6.18c5.153,4.127,10.345,8.284,15.571,12.469c42.066,33.128,87.716,66.068,136.247,97.62
			c48.521,31.567,99.913,61.744,153.183,89.76c3.299,1.803,6.672,3.482,10.025,5.2c3.355,1.71,6.714,3.423,10.075,5.136
			c6.719,3.414,13.449,6.834,20.189,10.26c6.799,3.293,13.606,6.592,20.423,9.896c6.827,3.269,13.587,6.672,20.502,9.782
			c6.878,3.166,13.764,6.334,20.654,9.506c3.447,1.574,6.875,3.186,10.338,4.727l10.421,4.559
			c6.941,3.033,13.887,6.066,20.834,9.102c3.457,1.543,6.977,2.955,10.471,4.418l10.492,4.354
			c7.003,2.877,13.954,5.853,20.985,8.635c7.03,2.768,14.06,5.535,21.085,8.301l10.524,4.139l10.585,3.963
			c7.049,2.629,14.092,5.257,21.129,7.883c3.505,1.335,7.053,2.563,10.585,3.816c3.532,1.249,7.063,2.498,10.591,3.746
			c3.526,1.246,7.051,2.491,10.571,3.735c3.521,1.241,7.029,2.505,10.574,3.665c7.065,2.365,14.12,4.727,21.163,7.084
			c3.52,1.171,7.037,2.341,10.55,3.51c3.53,1.117,7.058,2.234,10.58,3.351c56.313,17.944,112.165,33.42,166.562,46.215
			c6.796,1.597,13.563,3.187,20.3,4.77c6.755,1.489,13.479,2.972,20.172,4.448c3.343,0.736,6.679,1.471,10.005,2.203
			c3.336,0.695,6.663,1.388,9.982,2.078c6.634,1.369,13.234,2.729,19.8,4.084c26.306,5.182,52.037,10.008,77.168,14.113
			c25.098,4.242,49.583,7.799,73.249,11.053c11.854,1.527,23.476,3.121,34.924,4.424c5.716,0.673,11.379,1.339,16.986,1.998
			c5.611,0.606,11.167,1.206,16.666,1.799c5.491,0.615,10.938,1.141,16.324,1.659c5.382,0.519,10.705,1.032,15.967,1.54
			c10.541,0.891,20.807,1.871,30.847,2.594c20.048,1.624,39.093,2.741,56.962,3.749c35.769,1.824,66.921,2.661,92.564,2.79
			c25.639,0.174,45.754-0.242,59.453-0.712c6.85-0.228,12.096-0.47,15.63-0.655c3.531-0.203,5.354-0.309,5.354-0.309
			S4130.983,2818.938,4127.468,2818.573z"/>
		<g>
			<path style="fill:#8DC63F;" d="M3817.746,1641.833c-0.98-6.871-0.98-14.724-1.963-21.595
				c-2.945-26.503-7.852-51.044-14.724-76.564c-10.798-36.319-23.559-70.676-40.247-104.051
				c-35.336,23.559-67.73,49.081-103.068,76.565c-52.025,42.209-99.141,81.473-150.184,123.682
				c-64.787,55.952-124.664,106.995-181.598,170.799c-0.982,0.981-0.982,2.945-1.964,3.926c-6.87,7.853-13.741,15.706-20.613,23.559
				c-5.89,8.834-12.76,16.688-18.649,25.522c-6.871,10.797-14.725,19.632-20.615,30.43c-0.981,2.945-1.963,5.89-3.926,8.834
				c-7.854,10.798-13.742,20.613-18.65,32.393c-3.926,10.797-10.798,19.632-14.724,30.43c-2.944,9.816-6.872,18.65-10.798,27.484
				c-7.854,20.614-12.762,41.228-18.65,62.823c-5.891,25.522-8.835,49.081-11.779,74.603c-2.945,38.282-2.945,74.602,1.963,112.884
				c1.963,12.762,3.926,24.541,5.889,37.302c0,1.963,1.965,2.944,1.965,4.908c5.889,36.319,17.668,69.694,30.43,103.068
				c9.816-71.657,30.43-141.352,60.859-208.101c2.944-5.89,5.889-12.761,8.834-18.65c21.596-42.209,46.135-79.51,75.584-117.792
				c15.705-19.632,31.41-37.301,49.08-54.97c30.43-30.43,61.84-54.969,98.16-81.473c2.944-1.964,3.926-4.908,6.871-6.871
				c34.356-27.485,62.822-54.97,89.325-89.327c0.981-0.981,2.944-1.962,3.927-2.945c9.816-11.779,17.67-22.577,26.504-35.337
				c5.891-8.835,10.798-16.688,16.688-24.541c0.982-1.963,0.982-2.945,1.963-4.908c21.595-33.375,38.283-65.768,53.007-101.105
				c-42.209,120.737-118.774,229.695-218.897,309.205c-20.614,20.614-42.209,39.265-60.86,62.822
				c-0.98,0.982-2.944,1.964-3.925,2.945c-24.542,30.43-45.156,57.915-64.787,91.289c-27.484,47.117-47.117,94.234-63.805,145.277
				c-0.981,2.945-0.981,6.872-1.963,9.816c-15.705,50.062-22.576,100.124-27.484,151.167c10.797-5.89,17.668-13.742,28.466-21.596
				c8.834-5.89,17.669-12.76,25.522-20.613c6.87-5.89,13.742-10.798,20.613-15.706c58.896-48.098,111.902-93.252,167.855-143.313
				c47.115-43.191,91.287-82.455,134.479-128.59c1.964-1.963,2.944-4.908,4.908-6.872c40.245-42.209,71.657-87.362,100.123-138.406
				c30.431-56.934,48.1-114.848,57.914-178.652c0-1.964,0-3.927,0-5.89C3820.691,1717.417,3820.691,1680.116,3817.746,1641.833
				L3817.746,1641.833z"/>
		</g>
	</g>
</g>
</svg>
